<svg width="314" height="314" viewBox="0 0 314 314" fill="none" xmlns="http://www.w3.org/2000/svg">
<path d="M312.751 157.024C312.751 243.112 242.962 312.901 156.874 312.901C70.7854 312.901 0.997907 243.112 0.997907 157.024C0.997907 70.9356 70.7854 1.14812 156.874 1.14812C242.962 1.14812 312.751 70.9356 312.751 157.024Z" stroke="#FE7A00" stroke-width="0.938855" stroke-miterlimit="10"/>
<path d="M301.487 157.024C301.487 236.892 236.743 301.638 156.874 301.638C77.0061 301.638 12.2614 236.892 12.2614 157.024C12.2614 77.1565 77.0061 12.4118 156.874 12.4118C236.743 12.4118 301.487 77.1565 301.487 157.024Z" stroke="#FE7A00" stroke-width="0.917751" stroke-miterlimit="10"/>
<path d="M290.223 157.024C290.223 230.671 230.521 290.375 156.873 290.375C83.2258 290.375 23.5239 230.671 23.5239 157.024C23.5239 83.3775 83.2258 23.6739 156.873 23.6739C230.521 23.6739 290.223 83.3775 290.223 157.024V157.024Z" stroke="#FE7A00" stroke-width="0.896645" stroke-miterlimit="10"/>
<path d="M278.962 157.024C278.962 224.451 224.301 279.111 156.875 279.111C89.448 279.111 34.7872 224.451 34.7872 157.024C34.7872 89.598 89.448 34.9372 156.875 34.9372C224.301 34.9372 278.962 89.598 278.962 157.024V157.024Z" stroke="#FE7A00" stroke-width="0.87554" stroke-miterlimit="10"/>
<path d="M267.697 157.024C267.697 218.231 218.079 267.848 156.874 267.848C95.6678 267.848 46.0498 218.231 46.0498 157.024C46.0498 95.8173 95.6678 46.2009 156.874 46.2009C218.079 46.2009 267.697 95.8173 267.697 157.024V157.024Z" stroke="#FE7A00" stroke-width="0.854435" stroke-miterlimit="10"/>
<path d="M256.436 157.024C256.436 212.01 211.859 256.585 156.874 256.585C101.887 256.585 57.312 212.01 57.312 157.024C57.312 102.038 101.887 57.463 156.874 57.463C211.859 57.463 256.436 102.038 256.436 157.024V157.024Z" stroke="#FE7A00" stroke-width="0.833331" stroke-miterlimit="10"/>
<path d="M245.172 157.024C245.172 205.79 205.639 245.322 156.874 245.322C108.108 245.322 68.5755 205.79 68.5755 157.024C68.5755 108.259 108.108 68.7264 156.874 68.7264C205.639 68.7264 245.172 108.259 245.172 157.024V157.024Z" stroke="#FE7A00" stroke-width="0.812225" stroke-miterlimit="10"/>
<path d="M233.909 157.024C233.909 199.57 199.419 234.059 156.875 234.059C114.33 234.059 79.84 199.57 79.84 157.024C79.84 114.48 114.33 79.9902 156.875 79.9902C199.419 79.9902 233.909 114.48 233.909 157.024V157.024Z" stroke="#FE7A00" stroke-width="0.79112" stroke-miterlimit="10"/>
<path d="M222.646 157.024C222.646 193.349 193.198 222.796 156.874 222.796C120.548 222.796 91.1014 193.349 91.1014 157.024C91.1014 120.699 120.548 91.2522 156.874 91.2522C193.198 91.2522 222.646 120.699 222.646 157.024V157.024Z" stroke="#FE7A00" stroke-width="0.770015" stroke-miterlimit="10"/>
<path d="M211.384 157.024C211.384 187.129 186.98 211.532 156.875 211.532C126.77 211.532 102.366 187.129 102.366 157.024C102.366 126.92 126.77 102.516 156.875 102.516C186.98 102.516 211.384 126.92 211.384 157.024Z" stroke="#FE7A00" stroke-width="0.748911" stroke-miterlimit="10"/>
<path d="M200.119 157.024C200.119 180.908 180.758 200.27 156.874 200.27C132.99 200.27 113.628 180.908 113.628 157.024C113.628 133.141 132.99 113.779 156.874 113.779C180.758 113.779 200.119 133.141 200.119 157.024V157.024Z" stroke="#FE7A00" stroke-width="0.727805" stroke-miterlimit="10"/>
<path d="M188.855 157.024C188.855 174.688 174.537 189.007 156.874 189.007C139.209 189.007 124.89 174.688 124.89 157.024C124.89 139.362 139.209 125.041 156.874 125.041C174.537 125.041 188.855 139.362 188.855 157.024Z" stroke="#FE7A00" stroke-width="0.7067" stroke-miterlimit="10"/>
<path d="M177.594 157.024C177.594 168.467 168.318 177.743 156.874 177.743C145.43 177.743 136.154 168.467 136.154 157.024C136.154 145.581 145.43 136.305 156.874 136.305C168.318 136.305 177.594 145.581 177.594 157.024V157.024Z" stroke="#FE7A00" stroke-width="0.685595" stroke-miterlimit="10"/>
<path d="M166.33 157.024C166.33 162.246 162.097 166.48 156.874 166.48C151.651 166.48 147.418 162.246 147.418 157.024C147.418 151.801 151.651 147.568 156.874 147.568C162.097 147.568 166.33 151.801 166.33 157.024Z" stroke="#FE7A00" stroke-width="0.664489" stroke-miterlimit="10"/>
<path d="M157.313 313.381C157.354 313.381 157.393 313.382 157.433 313.382C243.522 313.382 313.31 243.594 313.31 157.506L157.313 157.506L157.313 313.381Z" fill="#FE7A00"/>
</svg>
