<svg width="33" height="33" viewBox="0 0 33 33" fill="none" xmlns="http://www.w3.org/2000/svg">
<rect width="33" height="33" rx="3" fill="#FE7A00"/>
<g clip-path="url(#clip0)">
<path d="M23.5557 18.8149C22.4537 18.8149 21.3716 18.6426 20.3462 18.3037C19.8438 18.1323 19.2261 18.2896 18.9194 18.6045L16.8955 20.1324C14.5483 18.8794 13.1025 17.4341 11.8667 15.1045L13.3496 13.1334C13.7349 12.7486 13.873 12.1866 13.7075 11.6592C13.3672 10.6285 13.1943 9.54691 13.1943 8.44441C13.1943 7.64795 12.5464 7 11.75 7H8.44436C7.64795 7 7 7.64795 7 8.44436C7 17.5733 14.4268 25 23.5557 25C24.3521 25 25 24.352 25 23.5556V20.2593C25 19.4629 24.352 18.8149 23.5557 18.8149Z" fill="white"/>
</g>
<defs>
<clipPath id="clip0">
<rect width="18" height="18" fill="white" transform="translate(7 7)"/>
</clipPath>
</defs>
</svg>
