<svg width="211" height="31" viewBox="0 0 211 31" fill="none" xmlns="http://www.w3.org/2000/svg">
<path d="M15 24H0.344L0.024 21.344C0.301333 20.9813 0.888 20.6293 1.784 20.288V5.664C0.909333 5.344 0.322667 4.98133 0.024 4.576L0.344 1.92H7.832L8.152 4.576C7.81067 4.98133 7.224 5.344 6.392 5.664V20.512H11.448C11.7253 19.4027 12.12 18.6133 12.632 18.144L15 18.432V24ZM16.2785 8C17.4732 7.72267 18.5825 7.584 19.6065 7.584C20.6305 7.584 21.4945 7.616 22.1985 7.68V20.448C23.0305 20.768 23.6172 21.1307 23.9585 21.536L23.6385 24H16.2785L15.9585 21.536C16.2572 21.1307 16.8438 20.768 17.7185 20.448V11.552C16.9718 11.296 16.3852 10.9333 15.9585 10.464L16.2785 8ZM19.8945 5.792C18.1238 5.792 17.2385 4.992 17.2385 3.392C17.2385 1.77067 18.1238 0.959999 19.8945 0.959999C21.6865 0.959999 22.5825 1.77067 22.5825 3.392C22.5825 4.992 21.6865 5.792 19.8945 5.792ZM25.5583 8C26.7316 7.744 27.7876 7.616 28.7263 7.616C29.6649 7.616 30.4436 7.63733 31.0623 7.68V9.28C31.5956 8.832 32.2996 8.46933 33.1743 8.192C34.0703 7.89333 34.9236 7.744 35.7343 7.744C37.8249 7.744 39.2863 8.23467 40.1183 9.216C40.9716 10.1973 41.3983 11.8933 41.3983 14.304V20.448C42.2303 20.768 42.8169 21.1307 43.1583 21.536L42.8383 24H35.4783L35.1583 21.536C35.4569 21.1307 36.0436 20.768 36.9183 20.448V14.112C36.9183 12.96 36.7263 12.192 36.3423 11.808C35.9796 11.4027 35.3183 11.2 34.3583 11.2C33.3983 11.2 32.4383 11.5413 31.4783 12.224V20.448C32.3103 20.768 32.8969 21.1307 33.2383 21.536L32.9183 24H25.5583L25.2383 21.536C25.5369 21.1307 26.1236 20.768 26.9983 20.448V11.552C26.2516 11.296 25.6649 10.9333 25.2383 10.464L25.5583 8ZM44.2055 1.28C45.4002 1.00267 46.5095 0.863998 47.5335 0.863998C48.5575 0.863998 49.4215 0.895999 50.1255 0.959999V20.448C50.9575 20.768 51.5442 21.1307 51.8855 21.536L51.5655 24H44.2055L43.8855 21.536C44.1842 21.1307 44.7708 20.768 45.6455 20.448V4.832C44.8988 4.576 44.3122 4.21333 43.8855 3.744L44.2055 1.28ZM56.0775 24L50.4135 15.712L53.9335 11.136C53.5708 10.9227 53.3148 10.6987 53.1655 10.464L53.4855 8H60.5255L60.8455 10.464C60.3762 11.0613 59.4908 11.5307 58.1895 11.872L55.1175 15.392L58.7335 20.16C60.0562 20.4587 60.9842 20.9173 61.5175 21.536L61.1975 24H56.0775ZM126.238 16.32H124.798V20.096C126.356 20.4373 127.326 20.8533 127.71 21.344L127.39 24H118.75L118.43 21.344C118.708 20.9813 119.294 20.6293 120.19 20.288V5.664C119.316 5.344 118.729 4.98133 118.43 4.576L118.75 1.92H127.23C130.196 1.96267 132.404 2.50667 133.854 3.552C135.326 4.576 136.062 6.41067 136.062 9.056C136.062 13.8987 132.788 16.32 126.238 16.32ZM126.718 5.408H124.798V12.832H126.942C128.393 12.832 129.47 12.544 130.174 11.968C130.9 11.392 131.262 10.4 131.262 8.992C131.262 7.56267 130.868 6.61333 130.078 6.144C129.31 5.65333 128.19 5.408 126.718 5.408ZM145.325 24.256C142.765 24.256 140.834 23.5733 139.533 22.208C138.253 20.8427 137.613 18.8587 137.613 16.256C137.613 14.6773 137.837 13.3227 138.285 12.192C138.733 11.04 139.341 10.1547 140.109 9.536C141.602 8.34133 143.341 7.744 145.325 7.744C147.309 7.744 148.823 8.256 149.869 9.28C150.935 10.2827 151.469 12.096 151.469 14.72C151.469 16.256 150.711 17.024 149.197 17.024H142.253C142.338 18.368 142.679 19.3173 143.277 19.872C143.895 20.4267 144.866 20.704 146.189 20.704C146.914 20.704 147.607 20.6187 148.269 20.448C148.93 20.2773 149.41 20.1067 149.709 19.936L150.157 19.68L151.117 22.24C150.989 22.3893 150.797 22.5813 150.541 22.816C150.306 23.0293 149.687 23.328 148.685 23.712C147.703 24.0747 146.583 24.256 145.325 24.256ZM147.341 14.176C147.383 13.8773 147.405 13.5147 147.405 13.088C147.405 12.6613 147.234 12.2133 146.893 11.744C146.551 11.2533 145.954 11.008 145.101 11.008C144.269 11.008 143.629 11.264 143.181 11.776C142.733 12.288 142.434 13.152 142.285 14.368L147.341 14.176ZM160.505 24.256C157.988 24.256 156.121 23.584 154.905 22.24C153.689 20.896 153.081 18.8693 153.081 16.16C153.081 13.4293 153.753 11.3493 155.097 9.92C156.463 8.46933 158.415 7.744 160.953 7.744C163.492 7.744 165.369 8.384 166.585 9.664C167.823 10.944 168.441 12.9493 168.441 15.68C168.441 18.3893 167.748 20.5013 166.361 22.016C164.996 23.5093 163.044 24.256 160.505 24.256ZM157.689 15.872C157.689 19.2853 158.713 20.992 160.761 20.992C161.807 20.992 162.575 20.608 163.065 19.84C163.577 19.0507 163.833 17.7707 163.833 16C163.833 12.672 162.788 11.008 160.697 11.008C159.673 11.008 158.916 11.3813 158.425 12.128C157.935 12.8533 157.689 14.1013 157.689 15.872ZM170.05 8C171.223 7.744 172.279 7.616 173.218 7.616C174.157 7.616 174.935 7.63733 175.554 7.68V9.248C176.983 8.24533 178.509 7.744 180.13 7.744C182.263 7.744 183.81 8.352 184.77 9.568C185.73 10.784 186.21 12.8107 186.21 15.648C186.21 17.1627 185.986 18.496 185.538 19.648C185.09 20.8 184.482 21.696 183.714 22.336C182.242 23.616 180.493 24.256 178.466 24.256C177.591 24.256 176.759 24.1707 175.97 24V26.752C177.229 27.0933 178.039 27.488 178.402 27.936L178.082 30.4H170.05L169.73 27.936C170.007 27.552 170.594 27.1893 171.49 26.848V11.552C170.743 11.296 170.157 10.9333 169.73 10.464L170.05 8ZM178.146 20.992C179.213 20.992 180.055 20.5227 180.674 19.584C181.293 18.624 181.602 17.312 181.602 15.648C181.602 13.9627 181.431 12.8107 181.09 12.192C180.749 11.5733 180.13 11.264 179.234 11.264C177.869 11.264 176.781 11.584 175.97 12.224V20.736C176.631 20.9067 177.357 20.992 178.146 20.992ZM187.799 1.28C188.994 1.00267 190.103 0.863998 191.127 0.863998C192.151 0.863998 193.015 0.895999 193.719 0.959999V20.448C194.551 20.768 195.138 21.1307 195.479 21.536L195.159 24H187.799L187.479 21.536C187.778 21.1307 188.365 20.768 189.239 20.448V4.832C188.493 4.576 187.906 4.21333 187.479 3.744L187.799 1.28ZM204.481 24.256C201.921 24.256 199.99 23.5733 198.689 22.208C197.409 20.8427 196.769 18.8587 196.769 16.256C196.769 14.6773 196.993 13.3227 197.441 12.192C197.889 11.04 198.497 10.1547 199.265 9.536C200.758 8.34133 202.497 7.744 204.481 7.744C206.465 7.744 207.979 8.256 209.025 9.28C210.091 10.2827 210.625 12.096 210.625 14.72C210.625 16.256 209.867 17.024 208.353 17.024H201.409C201.494 18.368 201.835 19.3173 202.433 19.872C203.051 20.4267 204.022 20.704 205.345 20.704C206.07 20.704 206.763 20.6187 207.425 20.448C208.086 20.2773 208.566 20.1067 208.865 19.936L209.313 19.68L210.273 22.24C210.145 22.3893 209.953 22.5813 209.697 22.816C209.462 23.0293 208.843 23.328 207.841 23.712C206.859 24.0747 205.739 24.256 204.481 24.256ZM206.497 14.176C206.539 13.8773 206.561 13.5147 206.561 13.088C206.561 12.6613 206.39 12.2133 206.049 11.744C205.707 11.2533 205.11 11.008 204.257 11.008C203.425 11.008 202.785 11.264 202.337 11.776C201.889 12.288 201.59 13.152 201.441 14.368L206.497 14.176Z" fill="#343537"/>
<path d="M71.3733 7.392C71.3733 5.17333 71.8533 3.50933 72.8133 2.4C73.7733 1.26933 75.2986 0.703999 77.3893 0.703999C79.4799 0.703999 81.2933 1.26933 82.8293 2.4C82.8506 2.54933 82.8613 2.77333 82.8613 3.072C82.8613 3.34933 82.7866 3.81867 82.6373 4.48C82.4879 5.14133 82.2853 5.67467 82.0293 6.08H79.3413C78.9573 5.35467 78.7546 4.672 78.7333 4.032C78.4773 3.98933 78.2639 3.968 78.0933 3.968C77.2826 3.968 76.7066 4.192 76.3653 4.64C76.0239 5.088 75.8533 5.89867 75.8533 7.072V8.288H80.7493V11.232H75.8533V20.288C77.4533 20.608 78.5413 21.024 79.1173 21.536L78.7973 24H69.9333L69.6133 21.536C69.9119 21.1307 70.4986 20.768 71.3733 20.448V11.232H69.9653L69.6133 9.024C70.0826 8.59733 70.6693 8.352 71.3733 8.288V7.392ZM89.0677 24.256C86.5504 24.256 84.6838 23.584 83.4678 22.24C82.2518 20.896 81.6438 18.8693 81.6438 16.16C81.6438 13.4293 82.3158 11.3493 83.6598 9.92C85.0251 8.46933 86.9771 7.744 89.5158 7.744C92.0544 7.744 93.9318 8.384 95.1478 9.664C96.3851 10.944 97.0037 12.9493 97.0037 15.68C97.0037 18.3893 96.3104 20.5013 94.9238 22.016C93.5584 23.5093 91.6064 24.256 89.0677 24.256ZM86.2518 15.872C86.2518 19.2853 87.2758 20.992 89.3238 20.992C90.3691 20.992 91.1371 20.608 91.6278 19.84C92.1398 19.0507 92.3958 17.7707 92.3958 16C92.3958 12.672 91.3504 11.008 89.2598 11.008C88.2358 11.008 87.4784 11.3813 86.9878 12.128C86.4971 12.8533 86.2518 14.1013 86.2518 15.872ZM108.245 11.936C106.623 11.936 105.503 12.2453 104.885 12.864V20.192C106.613 20.512 107.797 20.96 108.437 21.536L108.117 24H98.9645L98.6445 21.536C98.9432 21.1307 99.5298 20.768 100.405 20.448V11.552C99.6578 11.296 99.0712 10.9333 98.6445 10.464L98.9645 8C100.138 7.744 101.194 7.616 102.133 7.616C103.071 7.616 103.85 7.63733 104.469 7.68V9.696C104.959 9.12 105.589 8.65067 106.357 8.288C107.125 7.904 107.818 7.712 108.437 7.712C109.077 7.712 109.514 7.76533 109.749 7.872L109.653 12.032C109.226 11.968 108.757 11.936 108.245 11.936Z" fill="#FE7A00"/>
</svg>
