<svg width="403" height="402" viewBox="0 0 403 402" fill="none" xmlns="http://www.w3.org/2000/svg">
<path d="M401.382 201.191C401.382 311.753 311.752 401.382 201.191 401.382C90.6269 401.382 0.999278 311.753 0.999278 201.191C0.999278 90.6277 90.6269 1.00004 201.191 1.00004C311.752 1.00004 401.382 90.6277 401.382 201.191Z" stroke="#FE7A00" stroke-opacity="0.5" stroke-width="0.938855" stroke-miterlimit="10"/>
<path d="M386.916 201.19C386.916 303.764 303.765 386.917 201.19 386.917C98.6161 386.917 15.4649 303.764 15.4649 201.19C15.4649 98.6167 98.6161 15.4655 201.19 15.4655C303.765 15.4655 386.916 98.6167 386.916 201.19Z" stroke="#FE7A00" stroke-opacity="0.5" stroke-width="0.917751" stroke-miterlimit="10"/>
<path d="M372.449 201.191C372.449 295.775 295.774 372.452 201.189 372.452C106.605 372.452 29.9297 295.775 29.9297 201.191C29.9297 106.607 106.605 29.93 201.189 29.93C295.774 29.93 372.449 106.607 372.449 201.191V201.191Z" stroke="#FE7A00" stroke-opacity="0.5" stroke-width="0.896645" stroke-miterlimit="10"/>
<path d="M357.986 201.191C357.986 287.787 287.786 357.987 201.19 357.987C114.595 357.987 44.3942 287.787 44.3942 201.191C44.3942 114.596 114.595 44.3955 201.19 44.3955C287.786 44.3955 357.986 114.596 357.986 201.191V201.191Z" stroke="#FE7A00" stroke-opacity="0.5" stroke-width="0.87554" stroke-miterlimit="10"/>
<path d="M343.52 201.19C343.52 279.798 279.795 343.521 201.189 343.521C122.583 343.521 58.859 279.798 58.859 201.19C58.859 122.583 122.583 58.8609 201.189 58.8609C279.795 58.8609 343.52 122.583 343.52 201.19V201.19Z" stroke="#FE7A00" stroke-opacity="0.5" stroke-width="0.854435" stroke-miterlimit="10"/>
<path d="M329.057 201.19C329.057 271.808 271.807 329.056 201.19 329.056C130.571 329.056 73.3235 271.808 73.3235 201.19C73.3235 130.572 130.571 73.3245 201.19 73.3245C271.807 73.3245 329.057 130.572 329.057 201.19V201.19Z" stroke="#FE7A00" stroke-opacity="0.5" stroke-width="0.833331" stroke-miterlimit="10"/>
<path d="M314.591 201.191C314.591 263.82 263.819 314.592 201.19 314.592C138.561 314.592 87.7892 263.82 87.7892 201.191C87.7892 138.562 138.561 87.7909 201.19 87.7909C263.819 87.7909 314.591 138.562 314.591 201.191V201.191Z" stroke="#FE7A00" stroke-opacity="0.5" stroke-width="0.812225" stroke-miterlimit="10"/>
<path d="M300.126 201.191C300.126 255.832 255.831 300.126 201.191 300.126C146.551 300.126 102.256 255.832 102.256 201.191C102.256 146.551 146.551 102.256 201.191 102.256C255.831 102.256 300.126 146.551 300.126 201.191V201.191Z" stroke="#FE7A00" stroke-opacity="0.5" stroke-width="0.79112" stroke-miterlimit="10"/>
<path d="M285.661 201.191C285.661 247.842 247.841 285.662 201.19 285.662C154.537 285.662 116.719 247.842 116.719 201.191C116.719 154.539 154.537 116.72 201.19 116.72C247.841 116.72 285.661 154.539 285.661 201.191V201.191Z" stroke="#FE7A00" stroke-opacity="0.5" stroke-width="0.770015" stroke-miterlimit="10"/>
<path d="M271.196 201.19C271.196 239.854 239.854 271.195 201.191 271.195C162.527 271.195 131.185 239.854 131.185 201.19C131.185 162.528 162.527 131.186 201.191 131.186C239.854 131.186 271.196 162.528 271.196 201.19Z" stroke="#FE7A00" stroke-opacity="0.5" stroke-width="0.748911" stroke-miterlimit="10"/>
<path d="M256.729 201.191C256.729 231.865 231.864 256.731 201.19 256.731C170.516 256.731 145.65 231.865 145.65 201.191C145.65 170.518 170.516 145.652 201.19 145.652C231.864 145.652 256.729 170.518 256.729 201.191V201.191Z" stroke="#FE7A00" stroke-opacity="0.5" stroke-width="0.727805" stroke-miterlimit="10"/>
<path d="M242.264 201.19C242.264 223.876 223.874 242.266 201.19 242.266C178.503 242.266 160.114 223.876 160.114 201.19C160.114 178.507 178.503 160.115 201.19 160.115C223.874 160.115 242.264 178.507 242.264 201.19Z" stroke="#FE7A00" stroke-opacity="0.5" stroke-width="0.7067" stroke-miterlimit="10"/>
<path d="M227.8 201.191C227.8 215.887 215.887 227.8 201.19 227.8C186.492 227.8 174.579 215.887 174.579 201.191C174.579 186.494 186.492 174.581 201.19 174.581C215.887 174.581 227.8 186.494 227.8 201.191V201.191Z" stroke="#FE7A00" stroke-opacity="0.5" stroke-width="0.685595" stroke-miterlimit="10"/>
<path d="M213.334 201.19C213.334 207.898 207.897 213.335 201.19 213.335C194.482 213.335 189.045 207.898 189.045 201.19C189.045 194.483 194.482 189.047 201.19 189.047C207.897 189.047 213.334 194.483 213.334 201.19Z" stroke="#FE7A00" stroke-opacity="0.5" stroke-width="0.664489" stroke-miterlimit="10"/>
<path d="M201.754 401.998C201.807 401.998 201.858 402 201.908 402C312.472 402 402.1 312.371 402.1 201.809L201.754 201.809L201.754 401.998Z" fill="#505050"/>
</svg>
