<svg width="198" height="198" viewBox="0 0 198 198" fill="none" xmlns="http://www.w3.org/2000/svg">
<path d="M197 98.9998C197 153.124 153.123 197 99 197C44.8756 197 0.999999 153.124 0.999999 98.9998C0.999999 44.8757 44.8756 1.00001 99 1.00001C153.123 1.00001 197 44.8757 197 98.9998Z" stroke="#FE7A00" stroke-opacity="0.5" stroke-width="0.938855" stroke-miterlimit="10"/>
<path d="M189.919 98.9999C189.919 149.213 149.214 189.919 99.0004 189.919C48.787 189.919 8.08181 149.213 8.08181 98.9999C8.08181 48.7868 48.787 8.08151 99.0004 8.08151C149.214 8.08151 189.919 48.7868 189.919 98.9999Z" stroke="#FE7A00" stroke-opacity="0.5" stroke-width="0.917751" stroke-miterlimit="10"/>
<path d="M182.836 98.9999C182.836 145.302 145.301 182.838 98.9988 182.838C52.6965 182.838 15.1617 145.302 15.1617 98.9999C15.1617 52.6979 52.6965 15.1621 98.9988 15.1621C145.301 15.1621 182.836 52.6979 182.836 98.9999V98.9999Z" stroke="#FE7A00" stroke-opacity="0.5" stroke-width="0.896645" stroke-miterlimit="10"/>
<path d="M175.757 98.9998C175.757 141.391 141.391 175.757 99.0002 175.757C56.6089 175.757 22.2435 141.391 22.2435 98.9998C22.2435 56.6088 56.6089 22.2434 99.0002 22.2434C141.391 22.2434 175.757 56.6088 175.757 98.9998Z" stroke="#FE7A00" stroke-opacity="0.5" stroke-width="0.87554" stroke-miterlimit="10"/>
<path d="M168.675 98.9998C168.675 137.481 137.48 168.676 98.9996 168.676C60.5194 168.676 29.3244 137.481 29.3244 98.9998C29.3244 60.5189 60.5194 29.3249 98.9996 29.3249C137.48 29.3249 168.675 60.5189 168.675 98.9998V98.9998Z" stroke="#FE7A00" stroke-opacity="0.5" stroke-width="0.854435" stroke-miterlimit="10"/>
<path d="M161.595 98.9999C161.595 133.57 133.569 161.594 99 161.594C64.4298 161.594 36.4052 133.57 36.4052 98.9999C36.4052 64.4301 64.4298 36.4055 99 36.4055C133.569 36.4055 161.595 64.4301 161.595 98.9999V98.9999Z" stroke="#FE7A00" stroke-opacity="0.5" stroke-width="0.833331" stroke-miterlimit="10"/>
<path d="M154.513 98.9997C154.513 129.659 129.659 154.513 98.9994 154.513C68.3403 154.513 43.4861 129.659 43.4861 98.9997C43.4861 68.3409 68.3403 43.4867 98.9994 43.4867C129.659 43.4867 154.513 68.3409 154.513 98.9997V98.9997Z" stroke="#FE7A00" stroke-opacity="0.5" stroke-width="0.812225" stroke-miterlimit="10"/>
<path d="M147.432 98.9998C147.432 125.748 125.748 147.432 98.9998 147.432C72.2517 147.432 50.5679 125.748 50.5679 98.9998C50.5679 72.2521 72.2517 50.5683 98.9998 50.5683C125.748 50.5683 147.432 72.2521 147.432 98.9998V98.9998Z" stroke="#FE7A00" stroke-opacity="0.5" stroke-width="0.79112" stroke-miterlimit="10"/>
<path d="M140.351 98.9998C140.351 121.837 121.836 140.351 98.9992 140.351C76.1612 140.351 57.6478 121.837 57.6478 98.9998C57.6478 76.1622 76.1612 57.6488 98.9992 57.6488C121.836 57.6488 140.351 76.1622 140.351 98.9998V98.9998Z" stroke="#FE7A00" stroke-opacity="0.5" stroke-width="0.770015" stroke-miterlimit="10"/>
<path d="M133.271 98.9998C133.271 117.927 117.928 133.27 99.0006 133.27C80.0736 133.27 64.7307 117.927 64.7307 98.9998C64.7307 80.0732 80.0736 64.7302 99.0006 64.7302C117.928 64.7302 133.271 80.0732 133.271 98.9998Z" stroke="#FE7A00" stroke-opacity="0.5" stroke-width="0.748911" stroke-miterlimit="10"/>
<path d="M126.188 98.9998C126.188 114.016 114.016 126.189 99 126.189C83.9841 126.189 71.8115 114.016 71.8115 98.9998C71.8115 83.9843 83.9841 71.8117 99 71.8117C114.016 71.8117 126.188 83.9843 126.188 98.9998V98.9998Z" stroke="#FE7A00" stroke-opacity="0.5" stroke-width="0.727805" stroke-miterlimit="10"/>
<path d="M119.106 98.9998C119.106 110.105 110.104 119.108 98.9994 119.108C87.8936 119.108 78.8914 110.105 78.8914 98.9998C78.8914 87.8953 87.8936 78.8921 98.9994 78.8921C110.104 78.8921 119.106 87.8953 119.106 98.9998Z" stroke="#FE7A00" stroke-opacity="0.5" stroke-width="0.7067" stroke-miterlimit="10"/>
<path d="M112.026 98.9996C112.026 106.194 106.195 112.026 98.9998 112.026C91.805 112.026 85.9732 106.194 85.9732 98.9996C85.9732 91.8052 91.805 85.9734 98.9998 85.9734C106.195 85.9734 112.026 91.8052 112.026 98.9996V98.9996Z" stroke="#FE7A00" stroke-opacity="0.5" stroke-width="0.685595" stroke-miterlimit="10"/>
<path d="M104.944 98.9996C104.944 102.283 102.283 104.945 98.9992 104.945C95.7155 104.945 93.0541 102.283 93.0541 98.9996C93.0541 95.7162 95.7155 93.0549 98.9992 93.0549C102.283 93.0549 104.944 95.7162 104.944 98.9996Z" stroke="#FE7A00" stroke-opacity="0.5" stroke-width="0.664489" stroke-miterlimit="10"/>
</svg>
