<svg width="489" height="489" viewBox="0 0 489 489" fill="none" xmlns="http://www.w3.org/2000/svg">
<path d="M487.751 244.377C487.751 109.965 378.789 1 244.374 1C109.962 1 1 109.965 1 244.377C1 378.789 109.962 487.754 244.374 487.754C378.789 487.754 487.751 378.789 487.751 244.377Z" stroke="#4D4F51" stroke-width="0.938473" stroke-miterlimit="10"/>
<path d="M470.167 244.376C470.167 119.676 369.077 18.5859 244.374 18.5859C119.673 18.5859 18.583 119.676 18.583 244.376C18.583 369.077 119.673 470.167 244.374 470.167C369.077 470.167 470.167 369.077 470.167 244.376Z" stroke="#4D4F51" stroke-width="0.917377" stroke-miterlimit="10"/>
<path d="M452.581 244.377C452.581 129.389 359.363 36.1699 244.374 36.1699C129.385 36.1699 36.1689 129.389 36.1689 244.377C36.1689 359.366 129.385 452.582 244.374 452.582C359.363 452.582 452.581 359.366 452.581 244.377Z" stroke="#4D4F51" stroke-width="0.896281" stroke-miterlimit="10"/>
<path d="M434.995 244.377C434.995 139.1 349.651 53.7559 244.374 53.7559C139.1 53.7559 53.7559 139.1 53.7559 244.377C53.7559 349.653 139.1 434.995 244.374 434.995C349.651 434.995 434.995 349.653 434.995 244.377Z" stroke="#4D4F51" stroke-width="0.875184" stroke-miterlimit="10"/>
<path d="M417.409 244.377C417.409 148.812 339.939 71.3418 244.374 71.3418C148.812 71.3418 71.3418 148.812 71.3418 244.377C71.3418 339.942 148.812 417.412 244.374 417.412C339.939 417.412 417.409 339.942 417.409 244.377Z" stroke="#4D4F51" stroke-width="0.854088" stroke-miterlimit="10"/>
<path d="M399.823 244.376C399.823 158.526 330.227 88.9277 244.374 88.9277C158.524 88.9277 88.9277 158.526 88.9277 244.376C88.9277 330.227 158.524 399.825 244.374 399.825C330.227 399.825 399.823 330.227 399.823 244.376Z" stroke="#4D4F51" stroke-width="0.832992" stroke-miterlimit="10"/>
<path d="M382.24 244.377C382.24 168.239 320.516 106.514 244.375 106.514C168.236 106.514 106.512 168.239 106.512 244.377C106.512 320.516 168.236 382.24 244.375 382.24C320.516 382.24 382.24 320.516 382.24 244.377Z" stroke="#4D4F51" stroke-width="0.811895" stroke-miterlimit="10"/>
<path d="M364.653 244.378C364.653 177.951 310.803 124.101 244.374 124.101C177.947 124.101 124.097 177.951 124.097 244.378C124.097 310.804 177.947 364.654 244.374 364.654C310.803 364.654 364.653 310.804 364.653 244.378Z" stroke="#4D4F51" stroke-width="0.790799" stroke-miterlimit="10"/>
<path d="M347.067 244.378C347.067 187.663 301.092 141.684 244.374 141.684C187.659 141.684 141.683 187.663 141.683 244.378C141.683 301.093 187.659 347.068 244.374 347.068C301.092 347.068 347.067 301.093 347.067 244.378Z" stroke="#4D4F51" stroke-width="0.769703" stroke-miterlimit="10"/>
<path d="M329.481 244.377C329.481 197.374 291.378 159.27 244.374 159.27C197.371 159.27 159.27 197.374 159.27 244.377C159.27 291.38 197.371 329.484 244.374 329.484C291.378 329.484 329.481 291.38 329.481 244.377Z" stroke="#4D4F51" stroke-width="0.748605" stroke-miterlimit="10"/>
<path d="M311.896 244.376C311.896 207.085 281.666 176.855 244.375 176.855C207.086 176.855 176.853 207.085 176.853 244.376C176.853 281.668 207.086 311.897 244.375 311.897C281.666 311.897 311.896 281.668 311.896 244.376Z" stroke="#4D4F51" stroke-width="0.727509" stroke-miterlimit="10"/>
<path d="M294.312 244.376C294.312 216.797 271.954 194.441 244.374 194.441C216.797 194.441 194.439 216.797 194.439 244.376C194.439 271.956 216.797 294.311 244.374 294.311C271.954 294.311 294.312 271.956 294.312 244.376Z" stroke="#4D4F51" stroke-width="0.706413" stroke-miterlimit="10"/>
<path d="M276.726 244.377C276.726 226.511 262.242 212.025 244.374 212.025C226.509 212.025 212.025 226.511 212.025 244.377C212.025 262.242 226.509 276.726 244.374 276.726C262.242 276.726 276.726 262.242 276.726 244.377Z" stroke="#4D4F51" stroke-width="0.685316" stroke-miterlimit="10"/>
<path d="M259.14 244.376C259.14 236.223 252.53 229.611 244.374 229.611C236.221 229.611 229.611 236.223 229.611 244.376C229.611 252.53 236.221 259.142 244.374 259.142C252.53 259.142 259.14 252.53 259.14 244.376Z" stroke="#4D4F51" stroke-width="0.66422" stroke-miterlimit="10"/>
</svg>
