<svg width="489" height="489" viewBox="0 0 489 489" fill="none" xmlns="http://www.w3.org/2000/svg">
<g opacity="0.3">
<path d="M487.751 244.377C487.751 109.964 378.789 0.999879 244.375 0.999879C109.962 0.999879 1.00031 109.964 1.00031 244.377C1.00031 378.789 109.962 487.753 244.375 487.753C378.789 487.753 487.751 378.789 487.751 244.377Z" stroke="#4D4F51" stroke-opacity="0.5" stroke-width="0.938473" stroke-miterlimit="10"/>
<path d="M470.167 244.377C470.167 119.676 369.077 18.5861 244.374 18.5861C119.674 18.5861 18.5837 119.676 18.5837 244.377C18.5837 369.077 119.674 470.167 244.374 470.167C369.077 470.167 470.167 369.077 470.167 244.377V244.377Z" stroke="#4D4F51" stroke-opacity="0.5" stroke-width="0.917377" stroke-miterlimit="10"/>
<path d="M452.582 244.376C452.582 129.388 359.363 36.1693 244.374 36.1693C129.386 36.1693 36.1699 129.388 36.1699 244.376C36.1699 359.365 129.386 452.581 244.374 452.581C359.363 452.581 452.582 359.365 452.582 244.376V244.376Z" stroke="#4D4F51" stroke-opacity="0.5" stroke-width="0.896281" stroke-miterlimit="10"/>
<path d="M434.995 244.377C434.995 139.1 349.651 53.7555 244.374 53.7555C139.1 53.7555 53.7554 139.1 53.7554 244.377C53.7554 349.653 139.1 434.995 244.374 434.995C349.651 434.995 434.995 349.653 434.995 244.377V244.377Z" stroke="#4D4F51" stroke-opacity="0.5" stroke-width="0.875184" stroke-miterlimit="10"/>
<path d="M417.409 244.377C417.409 148.812 339.939 71.3416 244.374 71.3416C148.812 71.3416 71.3416 148.812 71.3416 244.377C71.3416 339.942 148.812 417.412 244.374 417.412C339.939 417.412 417.409 339.942 417.409 244.377V244.377Z" stroke="#4D4F51" stroke-opacity="0.5" stroke-width="0.854088" stroke-miterlimit="10"/>
<path d="M399.823 244.377C399.823 158.526 330.227 88.9279 244.374 88.9279C158.524 88.9279 88.9279 158.526 88.9279 244.377C88.9279 330.227 158.524 399.826 244.374 399.826C330.227 399.826 399.823 330.227 399.823 244.377Z" stroke="#4D4F51" stroke-opacity="0.5" stroke-width="0.832992" stroke-miterlimit="10"/>
<path d="M382.24 244.377C382.24 168.238 320.516 106.514 244.374 106.514C168.236 106.514 106.512 168.238 106.512 244.377C106.512 320.516 168.236 382.24 244.374 382.24C320.516 382.24 382.24 320.516 382.24 244.377V244.377Z" stroke="#4D4F51" stroke-opacity="0.5" stroke-width="0.811895" stroke-miterlimit="10"/>
<path d="M364.653 244.377C364.653 177.95 310.803 124.1 244.374 124.1C177.947 124.1 124.097 177.95 124.097 244.377C124.097 310.803 177.947 364.653 244.374 364.653C310.803 364.653 364.653 310.803 364.653 244.377V244.377Z" stroke="#4D4F51" stroke-opacity="0.5" stroke-width="0.790799" stroke-miterlimit="10"/>
<path d="M347.067 244.377C347.067 187.662 301.092 141.683 244.374 141.683C187.659 141.683 141.683 187.662 141.683 244.377C141.683 301.092 187.659 347.067 244.374 347.067C301.092 347.067 347.067 301.092 347.067 244.377V244.377Z" stroke="#4D4F51" stroke-opacity="0.5" stroke-width="0.769703" stroke-miterlimit="10"/>
<path d="M329.481 244.377C329.481 197.374 291.378 159.27 244.374 159.27C197.371 159.27 159.27 197.374 159.27 244.377C159.27 291.38 197.371 329.484 244.374 329.484C291.378 329.484 329.481 291.38 329.481 244.377Z" stroke="#4D4F51" stroke-opacity="0.5" stroke-width="0.748605" stroke-miterlimit="10"/>
<path d="M311.896 244.377C311.896 207.085 281.666 176.856 244.375 176.856C207.086 176.856 176.853 207.085 176.853 244.377C176.853 281.668 207.086 311.898 244.375 311.898C281.666 311.898 311.896 281.668 311.896 244.377V244.377Z" stroke="#4D4F51" stroke-opacity="0.5" stroke-width="0.727509" stroke-miterlimit="10"/>
<path d="M294.312 244.376C294.312 216.797 271.954 194.441 244.374 194.441C216.797 194.441 194.439 216.797 194.439 244.376C194.439 271.956 216.797 294.312 244.374 294.312C271.954 294.312 294.312 271.956 294.312 244.376V244.376Z" stroke="#4D4F51" stroke-opacity="0.5" stroke-width="0.706413" stroke-miterlimit="10"/>
<path d="M276.726 244.377C276.726 226.511 262.242 212.025 244.374 212.025C226.509 212.025 212.025 226.511 212.025 244.377C212.025 262.242 226.509 276.726 244.374 276.726C262.242 276.726 276.726 262.242 276.726 244.377Z" stroke="#4D4F51" stroke-opacity="0.5" stroke-width="0.685316" stroke-miterlimit="10"/>
<path d="M259.139 244.377C259.139 236.224 252.53 229.612 244.374 229.612C236.221 229.612 229.611 236.224 229.611 244.377C229.611 252.531 236.221 259.143 244.374 259.143C252.53 259.143 259.139 252.531 259.139 244.377Z" stroke="#4D4F51" stroke-opacity="0.5" stroke-width="0.66422" stroke-miterlimit="10"/>
</g>
</svg>
