<svg width="50" height="50" viewBox="0 0 50 50" fill="none" xmlns="http://www.w3.org/2000/svg">
    <path d="M16.4062 33.5938C16.4062 32.9721 16.6532 32.376 17.0927 31.9365C17.5323 31.4969 18.1284 31.25 18.75 31.25H19.5312C20.3601 31.25 21.1549 30.9208 21.741 30.3347C22.327 29.7487 22.6562 28.9538 22.6562 28.125C22.6562 27.2962 22.327 26.5013 21.741 25.9153C21.1549 25.3292 20.3601 25 19.5312 25H8.59375V26.5625H19.5312C19.9457 26.5625 20.3431 26.7271 20.6361 27.0201C20.9291 27.3132 21.0938 27.7106 21.0938 28.125C21.0938 28.5394 20.9291 28.9368 20.6361 29.2299C20.3431 29.5229 19.9457 29.6875 19.5312 29.6875H18.75C17.714 29.6875 16.7204 30.0991 15.9879 30.8316C15.2553 31.5642 14.8438 32.5577 14.8438 33.5938C14.8438 34.6298 15.2553 35.6233 15.9879 36.3559C16.7204 37.0884 17.714 37.5 18.75 37.5H32.0312V35.9375H18.75C18.1284 35.9375 17.5323 35.6906 17.0927 35.251C16.6532 34.8115 16.4062 34.2154 16.4062 33.5938Z"
          fill="#343537"/>
    <path d="M6.25 42.1875H34.375C34.9966 42.1875 35.5927 41.9406 36.0323 41.501C36.4718 41.0615 36.7188 40.4654 36.7188 39.8438V35.9375H39.0625C39.6841 35.9375 40.2802 35.6906 40.7198 35.251C41.1593 34.8115 41.4062 34.2154 41.4062 33.5938V29.6875H43.75C44.3716 29.6875 44.9677 29.4406 45.4073 29.001C45.8468 28.5615 46.0938 27.9654 46.0938 27.3438V3.90625C46.0938 3.28465 45.8468 2.68851 45.4073 2.24897C44.9677 1.80943 44.3716 1.5625 43.75 1.5625H15.625C15.0034 1.5625 14.4073 1.80943 13.9677 2.24897C13.5282 2.68851 13.2812 3.28465 13.2812 3.90625V7.8125H10.9375C10.3159 7.8125 9.71976 8.05943 9.28022 8.49897C8.84068 8.93851 8.59375 9.53465 8.59375 10.1562V14.0625H6.25C5.6284 14.0625 5.03226 14.3094 4.59272 14.749C4.15318 15.1885 3.90625 15.7846 3.90625 16.4062V39.8438C3.90625 40.4654 4.15318 41.0615 4.59272 41.501C5.03226 41.9406 5.6284 42.1875 6.25 42.1875ZM34.375 40.625H6.25C6.0428 40.625 5.84409 40.5427 5.69757 40.3962C5.55106 40.2497 5.46875 40.0509 5.46875 39.8438V21.875H35.1562V39.8438C35.1562 40.0509 35.0739 40.2497 34.9274 40.3962C34.7809 40.5427 34.5822 40.625 34.375 40.625ZM39.0625 34.375H36.7188V16.4062C36.7162 16.1395 36.6675 15.8752 36.575 15.625H39.8438V33.5938C39.8438 33.8009 39.7614 33.9997 39.6149 34.1462C39.4684 34.2927 39.2697 34.375 39.0625 34.375ZM43.75 28.125H41.4062V10.1562C41.4037 9.8895 41.355 9.6252 41.2625 9.375H44.5312V27.3438C44.5312 27.551 44.4489 27.7497 44.3024 27.8962C44.1559 28.0427 43.9572 28.125 43.75 28.125ZM14.8438 3.90625C14.8438 3.69905 14.9261 3.50034 15.0726 3.35382C15.2191 3.20731 15.4178 3.125 15.625 3.125H43.75C43.9572 3.125 44.1559 3.20731 44.3024 3.35382C44.4489 3.50034 44.5312 3.69905 44.5312 3.90625V7.8125H14.8438V3.90625ZM10.1562 10.1562C10.1562 9.94905 10.2386 9.75034 10.3851 9.60382C10.5316 9.45731 10.7303 9.375 10.9375 9.375H39.0625C39.2697 9.375 39.4684 9.45731 39.6149 9.60382C39.7614 9.75034 39.8438 9.94905 39.8438 10.1562V14.0625H10.1562V10.1562ZM6.25 15.625H34.375C34.5822 15.625 34.7809 15.7073 34.9274 15.8538C35.0739 16.0003 35.1562 16.199 35.1562 16.4062V20.3125H5.46875V16.4062C5.46875 16.199 5.55106 16.0003 5.69757 15.8538C5.84409 15.7073 6.0428 15.625 6.25 15.625Z"
          fill="#343537"/>
    <path d="M7.03125 17.1875H8.59375V18.75H7.03125V17.1875Z" fill="#343537"/>
    <path d="M10.1562 17.1875H11.7188V18.75H10.1562V17.1875Z" fill="#343537"/>
    <path d="M13.2812 17.1875H14.8438V18.75H13.2812V17.1875Z" fill="#343537"/>
    <path d="M32.0312 17.1875H33.5938V18.75H32.0312V17.1875Z" fill="#343537"/>
    <path d="M11.7188 10.9375H13.2812V12.5H11.7188V10.9375Z" fill="#343537"/>
    <path d="M14.8438 10.9375H16.4062V12.5H14.8438V10.9375Z" fill="#343537"/>
    <path d="M17.9688 10.9375H19.5312V12.5H17.9688V10.9375Z" fill="#343537"/>
    <path d="M36.7188 10.9375H38.2812V12.5H36.7188V10.9375Z" fill="#343537"/>
    <path d="M16.4062 4.6875H17.9688V6.25H16.4062V4.6875Z" fill="#343537"/>
    <path d="M19.5312 4.6875H21.0938V6.25H19.5312V4.6875Z" fill="#343537"/>
    <path d="M22.6562 4.6875H24.2188V6.25H22.6562V4.6875Z" fill="#343537"/>
    <path d="M41.4062 4.6875H42.9688V6.25H41.4062V4.6875Z" fill="#343537"/>
    <path d="M46.0935 43.75H6.24974C6.15048 43.7499 6.05211 43.7687 5.9599 43.8055L2.05365 45.368C1.90842 45.4258 1.78389 45.5259 1.69616 45.6553C1.60842 45.7847 1.56152 45.9374 1.56152 46.0938C1.56152 46.2501 1.60842 46.4028 1.69616 46.5322C1.78389 46.6616 1.90842 46.7617 2.05365 46.8195L5.9599 48.382C6.05211 48.4188 6.15048 48.4376 6.24974 48.4375H46.0935C46.7151 48.4375 47.3112 48.1906 47.7508 47.751C48.1903 47.3115 48.4372 46.7154 48.4372 46.0938C48.4372 45.4722 48.1903 44.876 47.7508 44.4365C47.3112 43.9969 46.7151 43.75 46.0935 43.75ZM46.0935 46.875H6.39974L4.44662 46.0938L6.39974 45.3125H46.0935C46.3007 45.3125 46.4994 45.3948 46.6459 45.5413C46.7924 45.6878 46.8747 45.8866 46.8747 46.0938C46.8747 46.301 46.7924 46.4997 46.6459 46.6462C46.4994 46.7927 46.3007 46.875 46.0935 46.875Z"
          fill="#343537"/>
</svg>
